<svg width="30" height="21" viewBox="0 0 30 21" fill="none" xmlns="http://www.w3.org/2000/svg">
<rect width="30" height="21" rx="5" fill="#364868"/>
<path d="M10.3086 10.0488H11.1816C11.4902 10.0488 11.7441 9.99609 11.9434 9.89062C12.1465 9.78125 12.2969 9.63281 12.3945 9.44531C12.4961 9.25391 12.5469 9.0332 12.5469 8.7832C12.5469 8.53711 12.502 8.32422 12.4121 8.14453C12.3223 7.96094 12.1855 7.82031 12.002 7.72266C11.8223 7.62109 11.5918 7.57031 11.3105 7.57031C11.084 7.57031 10.875 7.61523 10.6836 7.70508C10.4961 7.79492 10.3457 7.92383 10.2324 8.0918C10.123 8.25586 10.0684 8.45312 10.0684 8.68359H8.51562C8.51562 8.22266 8.63672 7.81836 8.87891 7.4707C9.125 7.11914 9.45703 6.84375 9.875 6.64453C10.293 6.44531 10.7598 6.3457 11.2754 6.3457C11.8379 6.3457 12.3301 6.43945 12.752 6.62695C13.1777 6.81055 13.5078 7.08203 13.7422 7.44141C13.9805 7.80078 14.0996 8.24609 14.0996 8.77734C14.0996 9.03125 14.0391 9.28516 13.918 9.53906C13.8008 9.78906 13.627 10.0156 13.3965 10.2188C13.1699 10.418 12.8906 10.5801 12.5586 10.7051C12.2305 10.8262 11.8535 10.8867 11.4277 10.8867H10.3086V10.0488ZM10.3086 11.2441V10.418H11.4277C11.9082 10.418 12.3242 10.4746 12.6758 10.5879C13.0312 10.6973 13.3242 10.8535 13.5547 11.0566C13.7852 11.2559 13.9551 11.4883 14.0645 11.7539C14.1777 12.0195 14.2344 12.3047 14.2344 12.6094C14.2344 13.0078 14.1602 13.3633 14.0117 13.6758C13.8633 13.9844 13.6543 14.2461 13.3848 14.4609C13.1191 14.6758 12.8066 14.8398 12.4473 14.9531C12.0879 15.0625 11.6992 15.1172 11.2812 15.1172C10.918 15.1172 10.5645 15.0684 10.2207 14.9707C9.88086 14.8691 9.57422 14.7188 9.30078 14.5195C9.02734 14.3164 8.81055 14.0625 8.65039 13.7578C8.49023 13.4492 8.41016 13.0918 8.41016 12.6855H9.96289C9.96289 12.9199 10.0195 13.1289 10.1328 13.3125C10.25 13.4961 10.4102 13.6406 10.6133 13.7461C10.8203 13.8477 11.0527 13.8984 11.3105 13.8984C11.5957 13.8984 11.8398 13.8477 12.043 13.7461C12.25 13.6406 12.4082 13.4922 12.5176 13.3008C12.627 13.1055 12.6816 12.873 12.6816 12.6035C12.6816 12.2832 12.6211 12.0234 12.5 11.8242C12.3789 11.625 12.2051 11.4785 11.9785 11.3848C11.7559 11.291 11.4902 11.2441 11.1816 11.2441H10.3086ZM21.248 13.7812V15H15.4707V13.957L18.2422 10.9629C18.5312 10.6348 18.7598 10.3496 18.9277 10.1074C19.0957 9.86523 19.2148 9.64648 19.2852 9.45117C19.3594 9.25195 19.3965 9.0625 19.3965 8.88281C19.3965 8.62109 19.3496 8.39258 19.2559 8.19727C19.1621 7.99805 19.0254 7.84375 18.8457 7.73438C18.6699 7.625 18.4531 7.57031 18.1953 7.57031C17.9102 7.57031 17.666 7.63672 17.4629 7.76953C17.2637 7.89844 17.1113 8.07812 17.0059 8.30859C16.9043 8.53906 16.8535 8.80273 16.8535 9.09961H15.3008C15.3008 8.5957 15.418 8.13672 15.6523 7.72266C15.8867 7.30469 16.2227 6.9707 16.6602 6.7207C17.0977 6.4707 17.6172 6.3457 18.2188 6.3457C18.8047 6.3457 19.3008 6.44336 19.707 6.63867C20.1133 6.83008 20.4219 7.10352 20.6328 7.45898C20.8438 7.81445 20.9492 8.23828 20.9492 8.73047C20.9492 9.00391 20.9043 9.27344 20.8145 9.53906C20.7246 9.80469 20.5977 10.0684 20.4336 10.3301C20.2734 10.5879 20.082 10.8496 19.8594 11.1152C19.6367 11.3809 19.3887 11.6523 19.1152 11.9297L17.4512 13.7812H21.248Z" fill="white"/>
</svg>
