<svg width="60" height="21" viewBox="0 0 60 21" fill="none" xmlns="http://www.w3.org/2000/svg">
<rect width="60" height="21" rx="10" fill="#4CAF50"/>
<path d="M14.3457 6.46875V7.3125L10.9941 15H9.35938L12.7109 7.6875H8.375V6.46875H14.3457ZM17.0059 11.0742L15.7695 10.7754L16.2441 6.46875H20.9375V7.75195H17.5273L17.3047 9.74414C17.4258 9.66992 17.6016 9.5957 17.832 9.52148C18.0664 9.44336 18.3301 9.4043 18.623 9.4043C19.0293 9.4043 19.3926 9.4707 19.7129 9.60352C20.0332 9.73242 20.3047 9.91992 20.5273 10.166C20.7539 10.4121 20.9238 10.7129 21.0371 11.0684C21.1543 11.4199 21.2129 11.8184 21.2129 12.2637C21.2129 12.6543 21.1543 13.0215 21.0371 13.3652C20.9238 13.7051 20.75 14.0078 20.5156 14.2734C20.2812 14.5352 19.9863 14.7422 19.6309 14.8945C19.2754 15.043 18.8574 15.1172 18.377 15.1172C18.0137 15.1172 17.6641 15.0645 17.3281 14.959C16.9961 14.8496 16.6973 14.6914 16.4316 14.4844C16.166 14.2734 15.9531 14.0156 15.793 13.7109C15.6367 13.4062 15.5508 13.0566 15.5352 12.6621H17.0645C17.0918 12.9238 17.1621 13.1465 17.2754 13.3301C17.3887 13.5137 17.5371 13.6543 17.7207 13.752C17.9082 13.8496 18.125 13.8984 18.3711 13.8984C18.5938 13.8984 18.7852 13.8574 18.9453 13.7754C19.1094 13.6895 19.2441 13.5703 19.3496 13.418C19.4551 13.2656 19.5332 13.0859 19.584 12.8789C19.6348 12.6719 19.6602 12.4453 19.6602 12.1992C19.6602 11.9609 19.6309 11.7441 19.5723 11.5488C19.5137 11.3496 19.4238 11.1777 19.3027 11.0332C19.1816 10.8887 19.0293 10.7773 18.8457 10.6992C18.666 10.6211 18.4551 10.582 18.2129 10.582C17.8887 10.582 17.6387 10.6309 17.4629 10.7285C17.291 10.8262 17.1387 10.9414 17.0059 11.0742ZM27.9863 12.668C27.9863 13.1992 27.8613 13.6484 27.6113 14.0156C27.3652 14.3789 27.0273 14.6543 26.5977 14.8418C26.1719 15.0254 25.6875 15.1172 25.1445 15.1172C24.6055 15.1172 24.1191 15.0254 23.6855 14.8418C23.2559 14.6543 22.9141 14.3789 22.6602 14.0156C22.4102 13.6484 22.2852 13.1992 22.2852 12.668C22.2852 12.3125 22.3555 11.9902 22.4961 11.7012C22.6406 11.4121 22.8398 11.1641 23.0938 10.957C23.3477 10.7461 23.6484 10.5859 23.9961 10.4766C24.3438 10.3633 24.7227 10.3066 25.1328 10.3066C25.6797 10.3066 26.168 10.4062 26.5977 10.6055C27.0312 10.8008 27.3711 11.0762 27.6172 11.4316C27.8633 11.7832 27.9863 12.1953 27.9863 12.668ZM26.4277 12.5742C26.4277 12.3008 26.373 12.0645 26.2637 11.8652C26.1582 11.6621 26.0078 11.5059 25.8125 11.3965C25.6172 11.2871 25.3906 11.2324 25.1328 11.2324C24.8711 11.2324 24.6426 11.2871 24.4473 11.3965C24.2559 11.5059 24.1055 11.6621 23.9961 11.8652C23.8906 12.0645 23.8379 12.3008 23.8379 12.5742C23.8379 12.8516 23.8906 13.0898 23.9961 13.2891C24.1055 13.4844 24.2578 13.6348 24.4531 13.7402C24.6484 13.8457 24.8789 13.8984 25.1445 13.8984C25.4102 13.8984 25.6387 13.8457 25.8301 13.7402C26.0215 13.6348 26.168 13.4844 26.2695 13.2891C26.375 13.0898 26.4277 12.8516 26.4277 12.5742ZM27.7988 8.71875C27.7988 9.14844 27.6855 9.53125 27.459 9.86719C27.2324 10.1992 26.918 10.459 26.5156 10.6465C26.1172 10.834 25.6602 10.9277 25.1445 10.9277C24.6289 10.9277 24.168 10.834 23.7617 10.6465C23.3594 10.459 23.043 10.1992 22.8125 9.86719C22.5859 9.53125 22.4727 9.14844 22.4727 8.71875C22.4727 8.21094 22.5879 7.78125 22.8184 7.42969C23.0488 7.07422 23.3633 6.80469 23.7617 6.62109C24.1641 6.4375 24.6211 6.3457 25.1328 6.3457C25.6523 6.3457 26.1133 6.4375 26.5156 6.62109C26.918 6.80469 27.2324 7.07422 27.459 7.42969C27.6855 7.78125 27.7988 8.21094 27.7988 8.71875ZM26.252 8.7832C26.252 8.54102 26.207 8.33008 26.1172 8.15039C26.0273 7.9668 25.8984 7.82422 25.7305 7.72266C25.5664 7.62109 25.3672 7.57031 25.1328 7.57031C24.9062 7.57031 24.7109 7.61914 24.5469 7.7168C24.3828 7.81445 24.2559 7.95508 24.166 8.13867C24.0762 8.31836 24.0312 8.5332 24.0312 8.7832C24.0312 9.0293 24.0762 9.24414 24.166 9.42773C24.2559 9.61133 24.3828 9.75586 24.5469 9.86133C24.7148 9.96289 24.9141 10.0137 25.1445 10.0137C25.375 10.0137 25.5723 9.96289 25.7363 9.86133C25.9004 9.75586 26.0273 9.61133 26.1172 9.42773C26.207 9.24414 26.252 9.0293 26.252 8.7832ZM30.7227 13.6055L30.7109 14.6777C30.7109 15.0957 30.6074 15.5195 30.4004 15.9492C30.1934 16.3789 29.9258 16.7344 29.5977 17.0156L28.7773 16.5645C28.8828 16.3887 28.9805 16.2109 29.0703 16.0312C29.1641 15.8516 29.2383 15.6562 29.293 15.4453C29.3516 15.2383 29.3809 15.0059 29.3809 14.748V13.6055H30.7227ZM37.9297 11.8887V13.1074H31.7832L31.7188 12.1699L35.334 6.46875H36.5703L35.2344 8.73633L33.2949 11.8887H37.9297ZM36.916 6.46875V15H35.3633V6.46875H36.916ZM44.7852 11.8887V13.1074H38.6387L38.5742 12.1699L42.1895 6.46875H43.4258L42.0898 8.73633L40.1504 11.8887H44.7852ZM43.7715 6.46875V15H42.2188V6.46875H43.7715ZM47.4102 10.0488H48.2832C48.5918 10.0488 48.8457 9.99609 49.0449 9.89062C49.248 9.78125 49.3984 9.63281 49.4961 9.44531C49.5977 9.25391 49.6484 9.0332 49.6484 8.7832C49.6484 8.53711 49.6035 8.32422 49.5137 8.14453C49.4238 7.96094 49.2871 7.82031 49.1035 7.72266C48.9238 7.62109 48.6934 7.57031 48.4121 7.57031C48.1855 7.57031 47.9766 7.61523 47.7852 7.70508C47.5977 7.79492 47.4473 7.92383 47.334 8.0918C47.2246 8.25586 47.1699 8.45312 47.1699 8.68359H45.6172C45.6172 8.22266 45.7383 7.81836 45.9805 7.4707C46.2266 7.11914 46.5586 6.84375 46.9766 6.64453C47.3945 6.44531 47.8613 6.3457 48.377 6.3457C48.9395 6.3457 49.4316 6.43945 49.8535 6.62695C50.2793 6.81055 50.6094 7.08203 50.8438 7.44141C51.082 7.80078 51.2012 8.24609 51.2012 8.77734C51.2012 9.03125 51.1406 9.28516 51.0195 9.53906C50.9023 9.78906 50.7285 10.0156 50.498 10.2188C50.2715 10.418 49.9922 10.5801 49.6602 10.7051C49.332 10.8262 48.9551 10.8867 48.5293 10.8867H47.4102V10.0488ZM47.4102 11.2441V10.418H48.5293C49.0098 10.418 49.4258 10.4746 49.7773 10.5879C50.1328 10.6973 50.4258 10.8535 50.6562 11.0566C50.8867 11.2559 51.0566 11.4883 51.166 11.7539C51.2793 12.0195 51.3359 12.3047 51.3359 12.6094C51.3359 13.0078 51.2617 13.3633 51.1133 13.6758C50.9648 13.9844 50.7559 14.2461 50.4863 14.4609C50.2207 14.6758 49.9082 14.8398 49.5488 14.9531C49.1895 15.0625 48.8008 15.1172 48.3828 15.1172C48.0195 15.1172 47.666 15.0684 47.3223 14.9707C46.9824 14.8691 46.6758 14.7188 46.4023 14.5195C46.1289 14.3164 45.9121 14.0625 45.752 13.7578C45.5918 13.4492 45.5117 13.0918 45.5117 12.6855H47.0645C47.0645 12.9199 47.1211 13.1289 47.2344 13.3125C47.3516 13.4961 47.5117 13.6406 47.7148 13.7461C47.9219 13.8477 48.1543 13.8984 48.4121 13.8984C48.6973 13.8984 48.9414 13.8477 49.1445 13.7461C49.3516 13.6406 49.5098 13.4922 49.6191 13.3008C49.7285 13.1055 49.7832 12.873 49.7832 12.6035C49.7832 12.2832 49.7227 12.0234 49.6016 11.8242C49.4805 11.625 49.3066 11.4785 49.0801 11.3848C48.8574 11.291 48.5918 11.2441 48.2832 11.2441H47.4102Z" fill="white"/>
</svg>
