<svg width="49" height="21" viewBox="0 0 49 21" fill="none" xmlns="http://www.w3.org/2000/svg">
<rect width="49" height="21" rx="5" fill="#364868"/>
<path d="M14.2637 10.002V11.4375C14.2637 12.0938 14.1973 12.6543 14.0645 13.1191C13.9316 13.584 13.7402 13.9648 13.4902 14.2617C13.2402 14.5547 12.9414 14.7715 12.5938 14.9121C12.2461 15.0488 11.8594 15.1172 11.4336 15.1172C11.0938 15.1172 10.7773 15.0742 10.4844 14.9883C10.1914 14.8984 9.92773 14.7617 9.69336 14.5781C9.46289 14.3906 9.26367 14.1523 9.0957 13.8633C8.93164 13.5742 8.80469 13.2285 8.71484 12.8262C8.62891 12.4238 8.58594 11.9609 8.58594 11.4375V10.002C8.58594 9.3457 8.65234 8.78711 8.78516 8.32617C8.92188 7.86523 9.11523 7.48828 9.36523 7.19531C9.61523 6.90234 9.91406 6.68945 10.2617 6.55664C10.6094 6.41992 10.9961 6.35156 11.4219 6.35156C11.7656 6.35156 12.082 6.39453 12.3711 6.48047C12.6641 6.56641 12.9258 6.70117 13.1562 6.88477C13.3906 7.06445 13.5898 7.29883 13.7539 7.58789C13.918 7.87305 14.043 8.2168 14.1289 8.61914C14.2188 9.01758 14.2637 9.47852 14.2637 10.002ZM12.7168 11.6484V9.78516C12.7168 9.45703 12.6973 9.17188 12.6582 8.92969C12.623 8.68359 12.5703 8.47461 12.5 8.30273C12.4297 8.13086 12.3418 7.99219 12.2363 7.88672C12.1309 7.77734 12.0098 7.69727 11.873 7.64648C11.7363 7.5957 11.5859 7.57031 11.4219 7.57031C11.2188 7.57031 11.0371 7.61133 10.877 7.69336C10.7168 7.77148 10.582 7.89648 10.4727 8.06836C10.3633 8.24023 10.2793 8.46875 10.2207 8.75391C10.166 9.03516 10.1387 9.37891 10.1387 9.78516V11.6484C10.1387 11.9766 10.1562 12.2637 10.1914 12.5098C10.2305 12.7559 10.2852 12.9668 10.3555 13.1426C10.4297 13.3184 10.5176 13.4629 10.6191 13.5762C10.7246 13.6855 10.8457 13.7676 10.9824 13.8223C11.1191 13.873 11.2695 13.8984 11.4336 13.8984C11.6406 13.8984 11.8223 13.8574 11.9785 13.7754C12.1387 13.6934 12.2734 13.5645 12.3828 13.3887C12.4922 13.209 12.5742 12.9766 12.6289 12.6914C12.6875 12.4023 12.7168 12.0547 12.7168 11.6484ZM15.6172 14.2441C15.6172 14.0098 15.6973 13.8125 15.8574 13.6523C16.0176 13.4922 16.2344 13.4121 16.5078 13.4121C16.7812 13.4121 16.998 13.4922 17.1582 13.6523C17.3184 13.8125 17.3984 14.0098 17.3984 14.2441C17.3984 14.4746 17.3184 14.6699 17.1582 14.8301C16.998 14.9863 16.7812 15.0645 16.5078 15.0645C16.2344 15.0645 16.0176 14.9863 15.8574 14.8301C15.6973 14.6699 15.6172 14.4746 15.6172 14.2441ZM24.5293 10.002V11.4375C24.5293 12.0938 24.4629 12.6543 24.3301 13.1191C24.1973 13.584 24.0059 13.9648 23.7559 14.2617C23.5059 14.5547 23.207 14.7715 22.8594 14.9121C22.5117 15.0488 22.125 15.1172 21.6992 15.1172C21.3594 15.1172 21.043 15.0742 20.75 14.9883C20.457 14.8984 20.1934 14.7617 19.959 14.5781C19.7285 14.3906 19.5293 14.1523 19.3613 13.8633C19.1973 13.5742 19.0703 13.2285 18.9805 12.8262C18.8945 12.4238 18.8516 11.9609 18.8516 11.4375V10.002C18.8516 9.3457 18.918 8.78711 19.0508 8.32617C19.1875 7.86523 19.3809 7.48828 19.6309 7.19531C19.8809 6.90234 20.1797 6.68945 20.5273 6.55664C20.875 6.41992 21.2617 6.35156 21.6875 6.35156C22.0312 6.35156 22.3477 6.39453 22.6367 6.48047C22.9297 6.56641 23.1914 6.70117 23.4219 6.88477C23.6562 7.06445 23.8555 7.29883 24.0195 7.58789C24.1836 7.87305 24.3086 8.2168 24.3945 8.61914C24.4844 9.01758 24.5293 9.47852 24.5293 10.002ZM22.9824 11.6484V9.78516C22.9824 9.45703 22.9629 9.17188 22.9238 8.92969C22.8887 8.68359 22.8359 8.47461 22.7656 8.30273C22.6953 8.13086 22.6074 7.99219 22.502 7.88672C22.3965 7.77734 22.2754 7.69727 22.1387 7.64648C22.002 7.5957 21.8516 7.57031 21.6875 7.57031C21.4844 7.57031 21.3027 7.61133 21.1426 7.69336C20.9824 7.77148 20.8477 7.89648 20.7383 8.06836C20.6289 8.24023 20.5449 8.46875 20.4863 8.75391C20.4316 9.03516 20.4043 9.37891 20.4043 9.78516V11.6484C20.4043 11.9766 20.4219 12.2637 20.457 12.5098C20.4961 12.7559 20.5508 12.9668 20.6211 13.1426C20.6953 13.3184 20.7832 13.4629 20.8848 13.5762C20.9902 13.6855 21.1113 13.7676 21.248 13.8223C21.3848 13.873 21.5352 13.8984 21.6992 13.8984C21.9062 13.8984 22.0879 13.8574 22.2441 13.7754C22.4043 13.6934 22.5391 13.5645 22.6484 13.3887C22.7578 13.209 22.8398 12.9766 22.8945 12.6914C22.9531 12.4023 22.9824 12.0547 22.9824 11.6484ZM31.3965 12.668C31.3965 13.1992 31.2715 13.6484 31.0215 14.0156C30.7754 14.3789 30.4375 14.6543 30.0078 14.8418C29.582 15.0254 29.0977 15.1172 28.5547 15.1172C28.0156 15.1172 27.5293 15.0254 27.0957 14.8418C26.666 14.6543 26.3242 14.3789 26.0703 14.0156C25.8203 13.6484 25.6953 13.1992 25.6953 12.668C25.6953 12.3125 25.7656 11.9902 25.9062 11.7012C26.0508 11.4121 26.25 11.1641 26.5039 10.957C26.7578 10.7461 27.0586 10.5859 27.4062 10.4766C27.7539 10.3633 28.1328 10.3066 28.543 10.3066C29.0898 10.3066 29.5781 10.4062 30.0078 10.6055C30.4414 10.8008 30.7812 11.0762 31.0273 11.4316C31.2734 11.7832 31.3965 12.1953 31.3965 12.668ZM29.8379 12.5742C29.8379 12.3008 29.7832 12.0645 29.6738 11.8652C29.5684 11.6621 29.418 11.5059 29.2227 11.3965C29.0273 11.2871 28.8008 11.2324 28.543 11.2324C28.2812 11.2324 28.0527 11.2871 27.8574 11.3965C27.666 11.5059 27.5156 11.6621 27.4062 11.8652C27.3008 12.0645 27.248 12.3008 27.248 12.5742C27.248 12.8516 27.3008 13.0898 27.4062 13.2891C27.5156 13.4844 27.668 13.6348 27.8633 13.7402C28.0586 13.8457 28.2891 13.8984 28.5547 13.8984C28.8203 13.8984 29.0488 13.8457 29.2402 13.7402C29.4316 13.6348 29.5781 13.4844 29.6797 13.2891C29.7852 13.0898 29.8379 12.8516 29.8379 12.5742ZM31.209 8.71875C31.209 9.14844 31.0957 9.53125 30.8691 9.86719C30.6426 10.1992 30.3281 10.459 29.9258 10.6465C29.5273 10.834 29.0703 10.9277 28.5547 10.9277C28.0391 10.9277 27.5781 10.834 27.1719 10.6465C26.7695 10.459 26.4531 10.1992 26.2227 9.86719C25.9961 9.53125 25.8828 9.14844 25.8828 8.71875C25.8828 8.21094 25.998 7.78125 26.2285 7.42969C26.459 7.07422 26.7734 6.80469 27.1719 6.62109C27.5742 6.4375 28.0312 6.3457 28.543 6.3457C29.0625 6.3457 29.5234 6.4375 29.9258 6.62109C30.3281 6.80469 30.6426 7.07422 30.8691 7.42969C31.0957 7.78125 31.209 8.21094 31.209 8.71875ZM29.6621 8.7832C29.6621 8.54102 29.6172 8.33008 29.5273 8.15039C29.4375 7.9668 29.3086 7.82422 29.1406 7.72266C28.9766 7.62109 28.7773 7.57031 28.543 7.57031C28.3164 7.57031 28.1211 7.61914 27.957 7.7168C27.793 7.81445 27.666 7.95508 27.5762 8.13867C27.4863 8.31836 27.4414 8.5332 27.4414 8.7832C27.4414 9.0293 27.4863 9.24414 27.5762 9.42773C27.666 9.61133 27.793 9.75586 27.957 9.86133C28.125 9.96289 28.3242 10.0137 28.5547 10.0137C28.7852 10.0137 28.9824 9.96289 29.1465 9.86133C29.3105 9.75586 29.4375 9.61133 29.5273 9.42773C29.6172 9.24414 29.6621 9.0293 29.6621 8.7832ZM32.5508 8.56055V8.10938C32.5508 7.78516 32.6211 7.49023 32.7617 7.22461C32.9023 6.95898 33.1074 6.74609 33.377 6.58594C33.6504 6.42578 33.9824 6.3457 34.373 6.3457C34.7715 6.3457 35.1055 6.42578 35.375 6.58594C35.6484 6.74609 35.8535 6.95898 35.9902 7.22461C36.1309 7.49023 36.2012 7.78516 36.2012 8.10938V8.56055C36.2012 8.87695 36.1309 9.16797 35.9902 9.43359C35.8535 9.69922 35.6504 9.91211 35.3809 10.0723C35.1113 10.2324 34.7793 10.3125 34.3848 10.3125C33.9902 10.3125 33.6562 10.2324 33.3828 10.0723C33.1094 9.91211 32.9023 9.69922 32.7617 9.43359C32.6211 9.16797 32.5508 8.87695 32.5508 8.56055ZM33.5996 8.10938V8.56055C33.5996 8.70898 33.627 8.84961 33.6816 8.98242C33.7402 9.11133 33.8281 9.2168 33.9453 9.29883C34.0625 9.38086 34.209 9.42188 34.3848 9.42188C34.5605 9.42188 34.7031 9.38086 34.8125 9.29883C34.9258 9.2168 35.0098 9.11133 35.0645 8.98242C35.123 8.84961 35.1523 8.70898 35.1523 8.56055V8.10938C35.1523 7.95703 35.123 7.81445 35.0645 7.68164C35.0098 7.54883 34.9238 7.44141 34.8066 7.35938C34.6934 7.27734 34.5488 7.23633 34.373 7.23633C34.2012 7.23633 34.0566 7.27734 33.9395 7.35938C33.8262 7.44141 33.7402 7.54883 33.6816 7.68164C33.627 7.81445 33.5996 7.95703 33.5996 8.10938ZM36.6465 13.3594V12.9082C36.6465 12.5879 36.7168 12.2949 36.8574 12.0293C37.002 11.7637 37.2109 11.5508 37.4844 11.3906C37.7578 11.2305 38.0879 11.1504 38.4746 11.1504C38.877 11.1504 39.2129 11.2305 39.4824 11.3906C39.752 11.5508 39.9551 11.7637 40.0918 12.0293C40.2324 12.2949 40.3027 12.5879 40.3027 12.9082V13.3594C40.3027 13.6797 40.2324 13.9727 40.0918 14.2383C39.9551 14.5039 39.752 14.7168 39.4824 14.877C39.2168 15.0371 38.8867 15.1172 38.4922 15.1172C38.0977 15.1172 37.7617 15.0371 37.4844 14.877C37.2109 14.7168 37.002 14.5039 36.8574 14.2383C36.7168 13.9727 36.6465 13.6797 36.6465 13.3594ZM37.7012 12.9082V13.3594C37.7012 13.5117 37.7324 13.6543 37.7949 13.7871C37.8574 13.916 37.9473 14.0215 38.0645 14.1035C38.1855 14.1855 38.3262 14.2266 38.4863 14.2266C38.6816 14.2266 38.8359 14.1855 38.9492 14.1035C39.0625 14.0215 39.1426 13.916 39.1895 13.7871C39.2363 13.6543 39.2598 13.5117 39.2598 13.3594V12.9082C39.2598 12.7559 39.2305 12.6152 39.1719 12.4863C39.1133 12.3535 39.0254 12.2461 38.9082 12.1641C38.7949 12.082 38.6504 12.041 38.4746 12.041C38.3027 12.041 38.1582 12.082 38.041 12.1641C37.9277 12.2461 37.8418 12.3535 37.7832 12.4863C37.7285 12.6152 37.7012 12.7559 37.7012 12.9082ZM38.8613 7.6875L34.6953 14.3555L33.9277 13.9277L38.0938 7.25977L38.8613 7.6875Z" fill="white"/>
</svg>
