<svg width="20" height="20" viewBox="0 0 20 20" fill="none" xmlns="http://www.w3.org/2000/svg">
<path d="M13.3333 18.125H5C2.985 18.125 1.875 17.015 1.875 15V6.66667C1.875 4.65167 2.985 3.54167 5 3.54167H7.5C7.845 3.54167 8.125 3.82167 8.125 4.16667C8.125 4.51167 7.845 4.79167 7.5 4.79167H5C3.68583 4.79167 3.125 5.3525 3.125 6.66667V15C3.125 16.3142 3.68583 16.875 5 16.875H13.3333C14.6475 16.875 15.2083 16.3142 15.2083 15V12.5C15.2083 12.155 15.4883 11.875 15.8333 11.875C16.1783 11.875 16.4583 12.155 16.4583 12.5V15C16.4583 17.015 15.3483 18.125 13.3333 18.125ZM17.15 4.19167L15.8083 2.85001C15.3333 2.38334 14.575 2.38333 14.1 2.85833L12.975 3.99167L16.0084 7.02499L17.1417 5.89999C17.6167 5.42499 17.6167 4.66667 17.15 4.19167ZM12.0917 4.87501L6.66667 10.325V13.3333H9.67499L15.125 7.90833L12.0917 4.87501Z" fill="#364868"/>
</svg>
