<svg width="16" height="16" viewBox="0 0 16 16" fill="none" xmlns="http://www.w3.org/2000/svg">
<path d="M13.7267 7.01336C14.0934 7.62003 14.0934 8.38 13.7267 8.98667C12.9067 10.3533 11.0733 12.6667 8.00001 12.6667C7.50134 12.6667 7.03203 12.6033 6.59603 12.4933C6.44737 12.456 6.40062 12.2654 6.50928 12.1574L7.77328 10.8934C7.85061 10.8161 7.94667 10.8333 8.00001 10.8333C9.56267 10.8333 10.8333 9.56202 10.8333 8.00002C10.8333 7.94668 10.8254 7.84132 10.8807 7.78599L12.7087 5.95802C12.7933 5.87336 12.9359 5.88209 13.0099 5.97609C13.3033 6.34676 13.5421 6.70203 13.7267 7.01336ZM14.3534 2.35337L2.35336 14.3534C2.25602 14.4507 2.12801 14.5 2.00001 14.5C1.87201 14.5 1.74399 14.4514 1.64665 14.3534C1.45132 14.158 1.45132 13.8413 1.64665 13.646L4.1167 11.176C3.27004 10.4553 2.65595 9.62402 2.27328 8.98602C1.90661 8.37935 1.90661 7.61938 2.27328 7.01271C3.09328 5.64604 4.92667 3.3327 8.00001 3.3327C9.21601 3.3327 10.2314 3.6973 11.0754 4.2173L13.6467 1.64601C13.842 1.45068 14.1587 1.45068 14.354 1.64601C14.5493 1.84135 14.5487 2.15804 14.3534 2.35337ZM5.68002 9.61265L6.40593 8.88673C6.25793 8.6234 6.16667 8.32402 6.16667 8.00002C6.16667 7.76668 6.2133 7.54669 6.2933 7.34002C6.41997 7.44669 6.57993 7.51336 6.75993 7.51336C7.17327 7.51336 7.51335 7.17328 7.51335 6.75994C7.51335 6.57994 7.44668 6.41998 7.34001 6.29331C7.54668 6.21331 7.76667 6.16668 8.00001 6.16668C8.32401 6.16668 8.62406 6.25794 8.88672 6.40594L9.61264 5.68003C9.15397 5.3587 8.59934 5.16668 8.00001 5.16668C6.44001 5.16668 5.16667 6.44002 5.16667 8.00002C5.16667 8.60002 5.35868 9.15398 5.68002 9.61265Z" fill="#364868"/>
</svg>
