<svg width="20" height="20" viewBox="0 0 20 20" fill="none" xmlns="http://www.w3.org/2000/svg">
<path d="M17.1084 6.225L12.9417 2.05833C12.8242 1.94083 12.6658 1.875 12.5 1.875H8.6666C6.99826 1.875 6.04168 2.83166 6.04168 4.49999V5.20833H5.33326C3.66493 5.20833 2.70834 6.165 2.70834 7.83333V16.3333C2.70834 18.0008 3.66493 18.9583 5.33326 18.9583H11.3326C13.0009 18.9583 13.9575 18.0017 13.9575 16.3333V15.625H14.6659C16.3343 15.625 17.2909 14.6683 17.2909 13V6.66667C17.2917 6.50083 17.2259 6.34167 17.1084 6.225ZM13.125 4.00917L15.1575 6.04167H14.5833C13.5333 6.04167 13.125 5.6325 13.125 4.58333V4.00917ZM12.7083 16.3333C12.7083 17.3225 12.3226 17.7083 11.3334 17.7083H5.33408C4.34408 17.7083 3.95916 17.3225 3.95916 16.3333V7.83333C3.95916 6.84416 4.34491 6.45833 5.33408 6.45833H6.04249V13C6.04249 14.6675 6.99908 15.625 8.66741 15.625H12.7092V16.3333H12.7083ZM14.6668 14.375H8.66741C7.67741 14.375 7.29249 13.9892 7.29249 13V4.49999C7.29249 3.51083 7.67824 3.125 8.66741 3.125H11.8758V4.58333C11.8758 6.33 12.8375 7.29167 14.5842 7.29167H16.0425V13C16.0417 13.9892 15.6559 14.375 14.6668 14.375Z" fill="#364868"/>
</svg>
