<svg width="23" height="21" viewBox="0 0 23 21" fill="none" xmlns="http://www.w3.org/2000/svg">
<rect width="23" height="21" rx="10" fill="#4CAF50"/>
<path d="M14.2637 10.002V11.4375C14.2637 12.0938 14.1973 12.6543 14.0645 13.1191C13.9316 13.584 13.7402 13.9648 13.4902 14.2617C13.2402 14.5547 12.9414 14.7715 12.5938 14.9121C12.2461 15.0488 11.8594 15.1172 11.4336 15.1172C11.0938 15.1172 10.7773 15.0742 10.4844 14.9883C10.1914 14.8984 9.92773 14.7617 9.69336 14.5781C9.46289 14.3906 9.26367 14.1523 9.0957 13.8633C8.93164 13.5742 8.80469 13.2285 8.71484 12.8262C8.62891 12.4238 8.58594 11.9609 8.58594 11.4375V10.002C8.58594 9.3457 8.65234 8.78711 8.78516 8.32617C8.92188 7.86523 9.11523 7.48828 9.36523 7.19531C9.61523 6.90234 9.91406 6.68945 10.2617 6.55664C10.6094 6.41992 10.9961 6.35156 11.4219 6.35156C11.7656 6.35156 12.082 6.39453 12.3711 6.48047C12.6641 6.56641 12.9258 6.70117 13.1562 6.88477C13.3906 7.06445 13.5898 7.29883 13.7539 7.58789C13.918 7.87305 14.043 8.2168 14.1289 8.61914C14.2188 9.01758 14.2637 9.47852 14.2637 10.002ZM12.7168 11.6484V9.78516C12.7168 9.45703 12.6973 9.17188 12.6582 8.92969C12.623 8.68359 12.5703 8.47461 12.5 8.30273C12.4297 8.13086 12.3418 7.99219 12.2363 7.88672C12.1309 7.77734 12.0098 7.69727 11.873 7.64648C11.7363 7.5957 11.5859 7.57031 11.4219 7.57031C11.2188 7.57031 11.0371 7.61133 10.877 7.69336C10.7168 7.77148 10.582 7.89648 10.4727 8.06836C10.3633 8.24023 10.2793 8.46875 10.2207 8.75391C10.166 9.03516 10.1387 9.37891 10.1387 9.78516V11.6484C10.1387 11.9766 10.1562 12.2637 10.1914 12.5098C10.2305 12.7559 10.2852 12.9668 10.3555 13.1426C10.4297 13.3184 10.5176 13.4629 10.6191 13.5762C10.7246 13.6855 10.8457 13.7676 10.9824 13.8223C11.1191 13.873 11.2695 13.8984 11.4336 13.8984C11.6406 13.8984 11.8223 13.8574 11.9785 13.7754C12.1387 13.6934 12.2734 13.5645 12.3828 13.3887C12.4922 13.209 12.5742 12.9766 12.6289 12.6914C12.6875 12.4023 12.7168 12.0547 12.7168 11.6484Z" fill="white"/>
</svg>
