<svg width="20" height="20" viewBox="0 0 20 20" fill="none" xmlns="http://www.w3.org/2000/svg">
<path d="M9.06662 11.7667C8.85329 11.7667 8.64013 11.685 8.47763 11.5225C7.02596 10.07 6.85176 7.81998 8.06259 6.17331C8.14926 6.03665 8.29432 5.86165 8.47682 5.67832L11.2767 2.87749C12.0584 2.09666 13.0959 1.66666 14.1993 1.66666C15.3018 1.66666 16.3392 2.09666 17.1208 2.87749C18.7325 4.48916 18.7325 7.11167 17.1208 8.7225L15.5876 10.2558C15.2618 10.5817 14.7351 10.5817 14.4092 10.2558C14.0834 9.93083 14.0834 9.40333 14.4092 9.07749L15.9426 7.54416C16.9035 6.5825 16.9035 5.01749 15.9426 4.05583C15.0101 3.12416 13.3884 3.12416 12.4551 4.05583L9.65581 6.85581C9.55831 6.95331 9.48346 7.04333 9.43263 7.12083C8.68513 8.14 8.78998 9.47915 9.65581 10.3442C9.98165 10.67 9.98165 11.1975 9.65581 11.5225C9.49331 11.685 9.27995 11.7667 9.06662 11.7667ZM8.7234 17.1225L11.5225 14.3225C11.9691 13.8758 12.3067 13.3367 12.4925 12.7817C13.0275 11.2917 12.6466 9.60249 11.5225 8.47749C11.1966 8.15166 10.6701 8.15165 10.3443 8.47665C10.0185 8.80165 10.0185 9.32999 10.3443 9.65499C11.0243 10.3367 11.2468 11.3183 10.9176 12.235C10.8076 12.5642 10.6093 12.8775 10.3443 13.1433L7.54501 15.9433C6.61251 16.8758 4.9908 16.875 4.05746 15.9433C3.09663 14.9816 3.09663 13.4167 4.05746 12.455L5.59087 10.9216C5.9167 10.5958 5.9167 10.0683 5.59087 9.74331C5.26504 9.41748 4.73832 9.41748 4.41249 9.74331L2.87928 11.2767C1.26762 12.8883 1.26762 15.51 2.87928 17.1216C3.66095 17.9025 4.69833 18.3325 5.80083 18.3325C6.90416 18.3333 7.94173 17.9033 8.7234 17.1225Z" fill="#364868"/>
</svg>
