<svg width="20" height="20" viewBox="0 0 20 20" fill="none" xmlns="http://www.w3.org/2000/svg">
<path d="M14.1667 2.5H5.83337C4.16671 2.5 3.33337 3.33333 3.33337 5V15C3.33337 16.6667 4.16671 17.5 5.83337 17.5H14.1667C15.8334 17.5 16.6667 16.6667 16.6667 15V5C16.6667 3.33333 15.8334 2.5 14.1667 2.5ZM10.8334 13.9583H6.66671C6.32171 13.9583 6.04171 13.6783 6.04171 13.3333C6.04171 12.9883 6.32171 12.7083 6.66671 12.7083H10.8334C11.1784 12.7083 11.4584 12.9883 11.4584 13.3333C11.4584 13.6783 11.1784 13.9583 10.8334 13.9583ZM13.3334 10.625H6.66671C6.32171 10.625 6.04171 10.345 6.04171 10C6.04171 9.655 6.32171 9.375 6.66671 9.375H13.3334C13.6784 9.375 13.9584 9.655 13.9584 10C13.9584 10.345 13.6784 10.625 13.3334 10.625ZM13.3334 7.29167H6.66671C6.32171 7.29167 6.04171 7.01167 6.04171 6.66667C6.04171 6.32167 6.32171 6.04167 6.66671 6.04167H13.3334C13.6784 6.04167 13.9584 6.32167 13.9584 6.66667C13.9584 7.01167 13.6784 7.29167 13.3334 7.29167Z" fill="#364868"/>
</svg>
