<svg width="35" height="18" viewBox="0 0 35 18" fill="none" xmlns="http://www.w3.org/2000/svg">
<rect width="35" height="18" rx="5" fill="#4CAF50"/>
<path d="M7.55957 4.85156V12H6.65625V5.97949L4.83496 6.64355V5.82812L7.41797 4.85156H7.55957ZM10.3281 11.5215C10.3281 11.3685 10.3753 11.2399 10.4697 11.1357C10.5674 11.0283 10.7074 10.9746 10.8896 10.9746C11.0719 10.9746 11.2103 11.0283 11.3047 11.1357C11.4023 11.2399 11.4512 11.3685 11.4512 11.5215C11.4512 11.6712 11.4023 11.7982 11.3047 11.9023C11.2103 12.0065 11.0719 12.0586 10.8896 12.0586C10.7074 12.0586 10.5674 12.0065 10.4697 11.9023C10.3753 11.7982 10.3281 11.6712 10.3281 11.5215ZM17.3154 7.87891V8.96289C17.3154 9.54557 17.2633 10.0371 17.1592 10.4375C17.055 10.8379 16.9053 11.1602 16.71 11.4043C16.5146 11.6484 16.2786 11.8258 16.002 11.9365C15.7285 12.0439 15.4193 12.0977 15.0742 12.0977C14.8008 12.0977 14.5485 12.0635 14.3174 11.9951C14.0863 11.9268 13.8779 11.8177 13.6924 11.668C13.5101 11.515 13.3538 11.3164 13.2236 11.0723C13.0934 10.8281 12.9941 10.5319 12.9258 10.1836C12.8574 9.83529 12.8232 9.42839 12.8232 8.96289V7.87891C12.8232 7.29622 12.8753 6.80794 12.9795 6.41406C13.0869 6.02018 13.2383 5.70443 13.4336 5.4668C13.6289 5.22591 13.8633 5.05339 14.1367 4.94922C14.4134 4.84505 14.7227 4.79297 15.0645 4.79297C15.3411 4.79297 15.5951 4.82715 15.8262 4.89551C16.0605 4.96061 16.2689 5.06641 16.4512 5.21289C16.6335 5.35612 16.7881 5.54818 16.915 5.78906C17.0452 6.02669 17.1445 6.31803 17.2129 6.66309C17.2812 7.00814 17.3154 7.41341 17.3154 7.87891ZM16.4072 9.10938V7.72754C16.4072 7.40853 16.3877 7.12858 16.3486 6.8877C16.3128 6.64355 16.2591 6.43522 16.1875 6.2627C16.1159 6.09017 16.0247 5.9502 15.9141 5.84277C15.8066 5.73535 15.6813 5.65723 15.5381 5.6084C15.3981 5.55632 15.2402 5.53027 15.0645 5.53027C14.8496 5.53027 14.6592 5.57096 14.4932 5.65234C14.3271 5.73047 14.1872 5.85579 14.0732 6.02832C13.9626 6.20085 13.8779 6.42708 13.8193 6.70703C13.7607 6.98698 13.7314 7.32715 13.7314 7.72754V9.10938C13.7314 9.42839 13.7493 9.70996 13.7852 9.9541C13.8242 10.1982 13.8812 10.4098 13.9561 10.5889C14.0309 10.7646 14.1221 10.9095 14.2295 11.0234C14.3369 11.1374 14.4606 11.222 14.6006 11.2773C14.7438 11.3294 14.9017 11.3555 15.0742 11.3555C15.2956 11.3555 15.4893 11.3132 15.6553 11.2285C15.8213 11.1439 15.9596 11.012 16.0703 10.833C16.1842 10.6507 16.2689 10.418 16.3242 10.1348C16.3796 9.84831 16.4072 9.50651 16.4072 9.10938ZM22.96 10.0762C22.96 10.5091 22.859 10.877 22.6572 11.1797C22.4587 11.4792 22.1885 11.707 21.8467 11.8633C21.5081 12.0195 21.1257 12.0977 20.6992 12.0977C20.2728 12.0977 19.8887 12.0195 19.5469 11.8633C19.2051 11.707 18.9349 11.4792 18.7363 11.1797C18.5378 10.877 18.4385 10.5091 18.4385 10.0762C18.4385 9.79297 18.4922 9.53418 18.5996 9.2998C18.7103 9.06217 18.8649 8.85547 19.0635 8.67969C19.2653 8.50391 19.5029 8.36882 19.7764 8.27441C20.0531 8.17676 20.3574 8.12793 20.6895 8.12793C21.1257 8.12793 21.5146 8.21257 21.8564 8.38184C22.1982 8.54785 22.4668 8.77734 22.6621 9.07031C22.8607 9.36328 22.96 9.69857 22.96 10.0762ZM22.0518 10.0566C22.0518 9.79297 21.9948 9.56022 21.8809 9.3584C21.7669 9.15332 21.6074 8.99382 21.4023 8.87988C21.1973 8.76595 20.9596 8.70898 20.6895 8.70898C20.4128 8.70898 20.1735 8.76595 19.9717 8.87988C19.7731 8.99382 19.6185 9.15332 19.5078 9.3584C19.3971 9.56022 19.3418 9.79297 19.3418 10.0566C19.3418 10.3301 19.3955 10.5645 19.5029 10.7598C19.6136 10.9518 19.7699 11.0999 19.9717 11.2041C20.1768 11.305 20.4193 11.3555 20.6992 11.3555C20.9792 11.3555 21.2201 11.305 21.4219 11.2041C21.6237 11.0999 21.7783 10.9518 21.8857 10.7598C21.9964 10.5645 22.0518 10.3301 22.0518 10.0566ZM22.7939 6.74121C22.7939 7.08626 22.7028 7.39714 22.5205 7.67383C22.3382 7.95052 22.0892 8.16862 21.7734 8.32812C21.4577 8.48763 21.0996 8.56738 20.6992 8.56738C20.2923 8.56738 19.9294 8.48763 19.6104 8.32812C19.2946 8.16862 19.0472 7.95052 18.8682 7.67383C18.6891 7.39714 18.5996 7.08626 18.5996 6.74121C18.5996 6.3278 18.6891 5.97624 18.8682 5.68652C19.0505 5.39681 19.2995 5.17546 19.6152 5.02246C19.931 4.86947 20.2907 4.79297 20.6943 4.79297C21.1012 4.79297 21.4626 4.86947 21.7783 5.02246C22.0941 5.17546 22.3415 5.39681 22.5205 5.68652C22.7028 5.97624 22.7939 6.3278 22.7939 6.74121ZM21.8906 6.75586C21.8906 6.51823 21.8402 6.30827 21.7393 6.12598C21.6383 5.94368 21.4984 5.80046 21.3193 5.69629C21.1403 5.58887 20.932 5.53516 20.6943 5.53516C20.4567 5.53516 20.2484 5.58561 20.0693 5.68652C19.8936 5.78418 19.7552 5.92415 19.6543 6.10645C19.5566 6.28874 19.5078 6.50521 19.5078 6.75586C19.5078 7 19.5566 7.21322 19.6543 7.39551C19.7552 7.5778 19.8952 7.7194 20.0742 7.82031C20.2533 7.92122 20.4616 7.97168 20.6992 7.97168C20.9368 7.97168 21.1436 7.92122 21.3193 7.82031C21.4984 7.7194 21.6383 7.5778 21.7393 7.39551C21.8402 7.21322 21.8906 7 21.8906 6.75586ZM24.0244 6.63379V6.25781C24.0244 5.98763 24.083 5.74186 24.2002 5.52051C24.3174 5.29915 24.485 5.12174 24.7031 4.98828C24.9212 4.85482 25.18 4.78809 25.4795 4.78809C25.7855 4.78809 26.0459 4.85482 26.2607 4.98828C26.4788 5.12174 26.6465 5.29915 26.7637 5.52051C26.8809 5.74186 26.9395 5.98763 26.9395 6.25781V6.63379C26.9395 6.89746 26.8809 7.13997 26.7637 7.36133C26.6497 7.58268 26.4837 7.76009 26.2656 7.89355C26.0508 8.02702 25.792 8.09375 25.4893 8.09375C25.1865 8.09375 24.9245 8.02702 24.7031 7.89355C24.485 7.76009 24.3174 7.58268 24.2002 7.36133C24.083 7.13997 24.0244 6.89746 24.0244 6.63379ZM24.7031 6.25781V6.63379C24.7031 6.78353 24.7308 6.92513 24.7861 7.05859C24.8447 7.19206 24.9326 7.30111 25.0498 7.38574C25.167 7.46712 25.3135 7.50781 25.4893 7.50781C25.665 7.50781 25.8099 7.46712 25.9238 7.38574C26.0378 7.30111 26.1224 7.19206 26.1777 7.05859C26.2331 6.92513 26.2607 6.78353 26.2607 6.63379V6.25781C26.2607 6.10482 26.2314 5.96159 26.1729 5.82812C26.1175 5.69141 26.0312 5.58236 25.9141 5.50098C25.8001 5.41634 25.6553 5.37402 25.4795 5.37402C25.307 5.37402 25.1621 5.41634 25.0449 5.50098C24.931 5.58236 24.8447 5.69141 24.7861 5.82812C24.7308 5.96159 24.7031 6.10482 24.7031 6.25781ZM27.4863 10.6377V10.2568C27.4863 9.98991 27.5449 9.74577 27.6621 9.52441C27.7793 9.30306 27.9469 9.12565 28.165 8.99219C28.3831 8.85872 28.6419 8.79199 28.9414 8.79199C29.2474 8.79199 29.5078 8.85872 29.7227 8.99219C29.9408 9.12565 30.1084 9.30306 30.2256 9.52441C30.3428 9.74577 30.4014 9.98991 30.4014 10.2568V10.6377C30.4014 10.9046 30.3428 11.1488 30.2256 11.3701C30.1117 11.5915 29.9456 11.7689 29.7275 11.9023C29.5127 12.0358 29.2539 12.1025 28.9512 12.1025C28.6484 12.1025 28.388 12.0358 28.1699 11.9023C27.9518 11.7689 27.7826 11.5915 27.6621 11.3701C27.5449 11.1488 27.4863 10.9046 27.4863 10.6377ZM28.165 10.2568V10.6377C28.165 10.7874 28.1927 10.9307 28.248 11.0674C28.3066 11.2008 28.3945 11.3099 28.5117 11.3945C28.6289 11.4759 28.7754 11.5166 28.9512 11.5166C29.127 11.5166 29.2718 11.4759 29.3857 11.3945C29.5029 11.3099 29.5892 11.2008 29.6445 11.0674C29.6999 10.9339 29.7275 10.7907 29.7275 10.6377V10.2568C29.7275 10.1038 29.6982 9.96061 29.6396 9.82715C29.5843 9.69368 29.498 9.58626 29.3809 9.50488C29.2669 9.42025 29.1204 9.37793 28.9414 9.37793C28.7689 9.37793 28.624 9.42025 28.5068 9.50488C28.3929 9.58626 28.3066 9.69368 28.248 9.82715C28.1927 9.96061 28.165 10.1038 28.165 10.2568ZM29.166 5.90137L25.6943 11.458L25.1865 11.1357L28.6582 5.5791L29.166 5.90137Z" fill="white"/>
</svg>
