<svg width="20" height="20" viewBox="0 0 20 20" fill="none" xmlns="http://www.w3.org/2000/svg">
<path d="M9.99996 1.66666C5.39996 1.66666 1.66663 5.39999 1.66663 9.99999C1.66663 14.6 5.39996 18.3333 9.99996 18.3333C14.6 18.3333 18.3333 14.6 18.3333 9.99999C18.3333 5.39999 14.6 1.66666 9.99996 1.66666ZM12.9166 10.625H10.625V12.9167C10.625 13.2583 10.3416 13.5417 9.99996 13.5417C9.65829 13.5417 9.37496 13.2583 9.37496 12.9167V10.625H7.08329C6.74163 10.625 6.45829 10.3417 6.45829 9.99999C6.45829 9.65832 6.74163 9.37499 7.08329 9.37499H9.37496V7.08332C9.37496 6.74166 9.65829 6.45832 9.99996 6.45832C10.3416 6.45832 10.625 6.74166 10.625 7.08332V9.37499H12.9166C13.2583 9.37499 13.5416 9.65832 13.5416 9.99999C13.5416 10.3417 13.2583 10.625 12.9166 10.625Z" fill="#364868"/>
</svg>
