<svg width="18" height="18" viewBox="0 0 18 18" fill="none" xmlns="http://www.w3.org/2000/svg">
<path d="M16.5 3.375H13.5342C12.7833 3.375 12.7517 3.28 12.5458 2.66333L12.3775 2.1575C12.1217 1.39083 11.4075 0.875 10.5992 0.875H7.40083C6.59249 0.875 5.8775 1.39 5.6225 2.1575L5.45417 2.66333C5.24834 3.28083 5.21666 3.375 4.46583 3.375H1.5C1.155 3.375 0.875 3.655 0.875 4C0.875 4.345 1.155 4.625 1.5 4.625H2.58166L3.22084 14.2075C3.34417 16.0617 4.48084 17.125 6.33917 17.125H11.6617C13.5192 17.125 14.6558 16.0617 14.78 14.2075L15.4192 4.625H16.5C16.845 4.625 17.125 4.345 17.125 4C17.125 3.655 16.845 3.375 16.5 3.375ZM6.80833 2.5525C6.89416 2.29667 7.13166 2.125 7.40083 2.125H10.5992C10.8683 2.125 11.1067 2.29667 11.1917 2.5525L11.36 3.05833C11.3967 3.1675 11.4333 3.27333 11.4733 3.375H6.525C6.565 3.2725 6.60251 3.16666 6.63917 3.05833L6.80833 2.5525ZM13.5317 14.1242C13.4525 15.3183 12.8575 15.875 11.6608 15.875H6.33833C5.14167 15.875 4.5475 15.3192 4.4675 14.1242L3.83417 4.625H4.465C4.56917 4.625 4.65583 4.61417 4.74917 4.6075C4.7775 4.61167 4.80333 4.625 4.8325 4.625H13.1658C13.1958 4.625 13.2208 4.61167 13.2492 4.6075C13.3425 4.61417 13.4292 4.625 13.5333 4.625H14.1642L13.5317 14.1242ZM11.2917 8.16667V12.3333C11.2917 12.6783 11.0117 12.9583 10.6667 12.9583C10.3217 12.9583 10.0417 12.6783 10.0417 12.3333V8.16667C10.0417 7.82167 10.3217 7.54167 10.6667 7.54167C11.0117 7.54167 11.2917 7.82167 11.2917 8.16667ZM7.95833 8.16667V12.3333C7.95833 12.6783 7.67833 12.9583 7.33333 12.9583C6.98833 12.9583 6.70833 12.6783 6.70833 12.3333V8.16667C6.70833 7.82167 6.98833 7.54167 7.33333 7.54167C7.67833 7.54167 7.95833 7.82167 7.95833 8.16667Z" fill="#364868"/>
</svg>
