<svg width="32" height="21" viewBox="0 0 32 21" fill="none" xmlns="http://www.w3.org/2000/svg">
<rect x="0.5" y="0.5" width="31" height="20" rx="4.5" stroke="#7B809A"/>
<path d="M14.2637 10.002V11.4375C14.2637 12.0938 14.1973 12.6543 14.0645 13.1191C13.9316 13.584 13.7402 13.9648 13.4902 14.2617C13.2402 14.5547 12.9414 14.7715 12.5938 14.9121C12.2461 15.0488 11.8594 15.1172 11.4336 15.1172C11.0938 15.1172 10.7773 15.0742 10.4844 14.9883C10.1914 14.8984 9.92773 14.7617 9.69336 14.5781C9.46289 14.3906 9.26367 14.1523 9.0957 13.8633C8.93164 13.5742 8.80469 13.2285 8.71484 12.8262C8.62891 12.4238 8.58594 11.9609 8.58594 11.4375V10.002C8.58594 9.3457 8.65234 8.78711 8.78516 8.32617C8.92188 7.86523 9.11523 7.48828 9.36523 7.19531C9.61523 6.90234 9.91406 6.68945 10.2617 6.55664C10.6094 6.41992 10.9961 6.35156 11.4219 6.35156C11.7656 6.35156 12.082 6.39453 12.3711 6.48047C12.6641 6.56641 12.9258 6.70117 13.1562 6.88477C13.3906 7.06445 13.5898 7.29883 13.7539 7.58789C13.918 7.87305 14.043 8.2168 14.1289 8.61914C14.2188 9.01758 14.2637 9.47852 14.2637 10.002ZM12.7168 11.6484V9.78516C12.7168 9.45703 12.6973 9.17188 12.6582 8.92969C12.623 8.68359 12.5703 8.47461 12.5 8.30273C12.4297 8.13086 12.3418 7.99219 12.2363 7.88672C12.1309 7.77734 12.0098 7.69727 11.873 7.64648C11.7363 7.5957 11.5859 7.57031 11.4219 7.57031C11.2188 7.57031 11.0371 7.61133 10.877 7.69336C10.7168 7.77148 10.582 7.89648 10.4727 8.06836C10.3633 8.24023 10.2793 8.46875 10.2207 8.75391C10.166 9.03516 10.1387 9.37891 10.1387 9.78516V11.6484C10.1387 11.9766 10.1562 12.2637 10.1914 12.5098C10.2305 12.7559 10.2852 12.9668 10.3555 13.1426C10.4297 13.3184 10.5176 13.4629 10.6191 13.5762C10.7246 13.6855 10.8457 13.7676 10.9824 13.8223C11.1191 13.873 11.2695 13.8984 11.4336 13.8984C11.6406 13.8984 11.8223 13.8574 11.9785 13.7754C12.1387 13.6934 12.2734 13.5645 12.3828 13.3887C12.4922 13.209 12.5742 12.9766 12.6289 12.6914C12.6875 12.4023 12.7168 12.0547 12.7168 11.6484ZM15.4297 8.56055V8.10938C15.4297 7.78516 15.5 7.49023 15.6406 7.22461C15.7812 6.95898 15.9863 6.74609 16.2559 6.58594C16.5293 6.42578 16.8613 6.3457 17.252 6.3457C17.6504 6.3457 17.9844 6.42578 18.2539 6.58594C18.5273 6.74609 18.7324 6.95898 18.8691 7.22461C19.0098 7.49023 19.0801 7.78516 19.0801 8.10938V8.56055C19.0801 8.87695 19.0098 9.16797 18.8691 9.43359C18.7324 9.69922 18.5293 9.91211 18.2598 10.0723C17.9902 10.2324 17.6582 10.3125 17.2637 10.3125C16.8691 10.3125 16.5352 10.2324 16.2617 10.0723C15.9883 9.91211 15.7812 9.69922 15.6406 9.43359C15.5 9.16797 15.4297 8.87695 15.4297 8.56055ZM16.4785 8.10938V8.56055C16.4785 8.70898 16.5059 8.84961 16.5605 8.98242C16.6191 9.11133 16.707 9.2168 16.8242 9.29883C16.9414 9.38086 17.0879 9.42188 17.2637 9.42188C17.4395 9.42188 17.582 9.38086 17.6914 9.29883C17.8047 9.2168 17.8887 9.11133 17.9434 8.98242C18.002 8.84961 18.0312 8.70898 18.0312 8.56055V8.10938C18.0312 7.95703 18.002 7.81445 17.9434 7.68164C17.8887 7.54883 17.8027 7.44141 17.6855 7.35938C17.5723 7.27734 17.4277 7.23633 17.252 7.23633C17.0801 7.23633 16.9355 7.27734 16.8184 7.35938C16.7051 7.44141 16.6191 7.54883 16.5605 7.68164C16.5059 7.81445 16.4785 7.95703 16.4785 8.10938ZM19.5254 13.3594V12.9082C19.5254 12.5879 19.5957 12.2949 19.7363 12.0293C19.8809 11.7637 20.0898 11.5508 20.3633 11.3906C20.6367 11.2305 20.9668 11.1504 21.3535 11.1504C21.7559 11.1504 22.0918 11.2305 22.3613 11.3906C22.6309 11.5508 22.834 11.7637 22.9707 12.0293C23.1113 12.2949 23.1816 12.5879 23.1816 12.9082V13.3594C23.1816 13.6797 23.1113 13.9727 22.9707 14.2383C22.834 14.5039 22.6309 14.7168 22.3613 14.877C22.0957 15.0371 21.7656 15.1172 21.3711 15.1172C20.9766 15.1172 20.6406 15.0371 20.3633 14.877C20.0898 14.7168 19.8809 14.5039 19.7363 14.2383C19.5957 13.9727 19.5254 13.6797 19.5254 13.3594ZM20.5801 12.9082V13.3594C20.5801 13.5117 20.6113 13.6543 20.6738 13.7871C20.7363 13.916 20.8262 14.0215 20.9434 14.1035C21.0645 14.1855 21.2051 14.2266 21.3652 14.2266C21.5605 14.2266 21.7148 14.1855 21.8281 14.1035C21.9414 14.0215 22.0215 13.916 22.0684 13.7871C22.1152 13.6543 22.1387 13.5117 22.1387 13.3594V12.9082C22.1387 12.7559 22.1094 12.6152 22.0508 12.4863C21.9922 12.3535 21.9043 12.2461 21.7871 12.1641C21.6738 12.082 21.5293 12.041 21.3535 12.041C21.1816 12.041 21.0371 12.082 20.9199 12.1641C20.8066 12.2461 20.7207 12.3535 20.6621 12.4863C20.6074 12.6152 20.5801 12.7559 20.5801 12.9082ZM21.7402 7.6875L17.5742 14.3555L16.8066 13.9277L20.9727 7.25977L21.7402 7.6875Z" fill="#364868"/>
</svg>
